<?xml version="1.0" encoding="utf-8"?>
<!-- Generator: Adobe Illustrator 25.0.0, SVG Export Plug-In . SVG Version: 6.00 Build 0)  -->
<svg version="1.1" id="Capa_1" xmlns="http://www.w3.org/2000/svg" xmlns:xlink="http://www.w3.org/1999/xlink" x="0px" y="0px"
	 viewBox="0 0 3174.2 709.44" style="enable-background:new 0 0 3174.2 709.44;" xml:space="preserve">
<style type="text/css">
	.st0{fill:#323E48;}
	.st1{fill:#FFDD00;}
</style>
<g>
	<path d="M171.82,548.14V161.42c0.01-9.63,7.85-17.47,17.49-17.48h72.06c52.09,0,94.46,42.4,94.46,94.47
		c0,13.81-5.55,34.75-12.38,46.74c-4.88,8.51-15.01,20.43-22.63,26.62c41.01,20.39,74.28,74.11,74.28,119.92
		c0,73.81-59.91,133.82-133.73,133.93h-72.06C179.66,565.61,171.83,557.78,171.82,548.14z M320.29,238.41
		c0-32.52-26.4-59.19-58.93-59.5h-54.58v351.75h54.58c54.52,0,98.88-44.36,98.88-98.88c0-54.53-44.36-98.88-98.88-98.88
		c-9.65,0-17.49-7.84-17.49-17.49s7.84-17.49,17.49-17.49C293.89,297.6,320.29,270.94,320.29,238.41z"/>
	<path d="M871.22,354.41v0.35c-0.03,117.33-95.27,212.56-212.6,212.56c-117.36,0-212.6-95.25-212.6-212.6s95.25-212.59,212.6-212.59
		c77.95,0,165.74,58.31,195.97,130.17C863.77,294.03,871.22,330.82,871.22,354.41z M659.31,178.16
		c-97.38,0-176.61,79.18-176.61,176.6S561.92,531.4,659.31,531.4s176.62-79.23,176.62-176.64
		C835.92,257.39,756.69,178.16,659.31,178.16z"/>
	<path d="M960.15,354.77c0,97.39,79.22,176.63,176.63,176.63c0.12,0,0.3,0,0.41,0c46.99,0,108.79-29.93,137.92-66.8
		c2.91-3.65,9.05-6.62,13.71-6.62c9.68,0,17.53,7.86,17.53,17.53c0,3.38-1.7,8.27-3.81,10.92c-16.36,20.52-48.72,46.64-72.23,58.29
		c-24.4,12-66.27,21.74-93.46,21.74c-116.86,0-211.73-94.85-211.76-211.71v-0.15c0-116.82,94.81-211.63,211.63-211.63
		c27.24,0,69.18,9.78,93.61,21.83c23.51,11.66,55.87,37.76,72.22,58.29c2.1,2.65,3.82,7.54,3.82,10.92
		c0,9.68-7.86,17.53-17.53,17.53c-4.67,0-10.81-2.96-13.71-6.62c-29.14-36.86-90.95-66.79-137.94-66.79c-0.11,0-0.28,0-0.39,0
		C1039.39,178.14,960.15,257.37,960.15,354.77z"/>
	<path d="M1699.58,542.1c0.67,1.7,1.22,4.58,1.22,6.42c0,9.66-7.85,17.5-17.51,17.5c-6.58,0-13.88-4.97-16.28-11.09l-59.91-152.21
		l-73.03,0c-0.08,0-0.23,0-0.31,0c-9.67,0-17.51-7.85-17.51-17.51c0-9.67,7.84-17.51,17.51-17.51c0.08,0,0.23,0,0.31,0l59.26,0
		l-62.74-159.44l-136.41,346.66c-2.41,6.12-9.71,11.09-16.28,11.09c-9.66,0-17.51-7.84-17.51-17.5c0-1.83,0.55-4.71,1.22-6.42
		l152.69-388.05c2.41-6.12,9.71-11.1,16.28-11.1s13.88,4.98,16.28,11.1L1699.58,542.1z"/>
	<path d="M1774.47,354.76c0,97.42,79.24,176.65,176.63,176.65c40.84-0.01,97.26-23.64,125.92-52.75l-157-109.51
		c-4.15-2.89-7.5-9.33-7.5-14.38c0-9.67,7.85-17.52,17.52-17.52c3.04,0,7.54,1.41,10.02,3.15l173.1,120.75
		c4.14,2.89,7.5,9.32,7.5,14.37c0,3.38-1.7,8.27-3.81,10.91c-16.35,20.52-48.71,46.64-72.22,58.29c-24.4,12-66.27,21.74-93.46,21.74
		c-116.86,0-211.74-94.85-211.76-211.71v-0.15c0-116.82,94.81-211.63,211.63-211.63c27.24,0,69.18,9.78,93.61,21.83
		c23.51,11.66,55.86,37.77,72.22,58.29c2.1,2.65,3.82,7.54,3.82,10.92c0,9.68-7.86,17.53-17.53,17.53c-4.67,0-10.81-2.96-13.71-6.62
		c-29.15-36.86-90.96-66.79-137.96-66.79c-0.1,0-0.27,0-0.38,0C1853.71,178.14,1774.47,257.34,1774.47,354.76z"/>
	<path d="M2622.37,160.95v193.81c0,0.12,0,0.3,0,0.41c0,23.54-7.45,60.22-16.61,81.89c-30.15,71.22-117.36,129.01-194.69,129.01
		c-116.64,0-211.35-94.66-211.4-211.31V160.95c0.16-9.5,8.02-17.21,17.51-17.21s17.34,7.7,17.51,17.21v193.81
		c0,97.24,79.1,176.36,176.32,176.36c97.22,0,176.31-79.12,176.31-176.36V160.95c0.02-9.66,7.86-17.51,17.52-17.51
		C2614.51,143.44,2622.36,151.29,2622.37,160.95z"/>
	<path d="M3001.16,542.1c0.67,1.7,1.22,4.58,1.22,6.42c0,9.66-7.85,17.5-17.51,17.5c-6.58,0-13.88-4.97-16.28-11.09l-59.91-152.21
		h-73.03c-0.08,0-0.23,0-0.31,0c-9.67,0-17.51-7.85-17.51-17.51c0-9.67,7.84-17.51,17.51-17.51c0.08,0,0.23,0,0.31,0h59.26
		l-62.74-159.44l-136.41,346.66c-2.41,6.12-9.71,11.09-16.28,11.09c-9.66,0-17.51-7.84-17.51-17.5c0-1.83,0.55-4.71,1.22-6.42
		l152.69-388.05c2.41-6.12,9.71-11.1,16.28-11.1c6.58,0,13.88,4.98,16.28,11.1L3001.16,542.1z"/>
</g>
</svg>
